<svg version="1.1" id="Layer_1" xmlns="http://www.w3.org/2000/svg" xmlns:xlink="http://www.w3.org/1999/xlink" x="0px" y="0px"
	 width="100%" viewBox="0 0 500 500" enable-background="new 0 0 500 500" xml:space="preserve">
<path fill="#000000" opacity="0.0" stroke="none" 
	d="
M227.000000,501.000000 
	C151.333359,501.000000 76.166702,501.000000 1.000040,501.000000 
	C1.000027,334.333405 1.000027,167.666779 1.000013,1.000130 
	C167.666565,1.000087 334.333130,1.000087 500.999756,1.000043 
	C500.999847,167.666534 500.999847,334.333069 500.999939,500.999817 
	C409.833344,501.000000 318.666656,501.000000 227.000000,501.000000 
M375.008118,162.115829 
	C374.957275,151.746323 374.906403,141.376801 374.980133,130.113022 
	C373.658173,116.446922 372.336212,102.780830 370.948730,88.437073 
	C369.324615,89.195114 368.339813,89.607857 367.397614,90.101868 
	C358.946503,94.532944 350.670563,99.344612 342.007599,103.311584 
	C334.091614,106.936501 325.829559,109.854424 317.593506,112.720268 
	C305.388092,116.967300 293.100616,120.986046 280.791443,124.924980 
	C271.726227,127.825859 262.275482,129.732941 253.527802,133.363083 
	C241.924698,138.178207 230.539017,143.712051 219.615967,149.916061 
	C208.788239,156.065948 197.880508,162.512741 188.387482,170.474304 
	C173.384079,183.057266 161.052139,198.111023 153.114929,216.417740 
	C147.589859,229.160980 143.683105,242.440811 142.249893,256.084106 
	C141.136444,266.683502 142.420197,277.570557 143.035843,288.306976 
	C143.871613,302.882080 147.990097,316.692535 153.471771,330.158173 
	C154.957275,333.807373 156.647751,337.248932 155.174576,341.790009 
	C152.782898,349.162384 151.041626,356.825867 149.868011,364.495300 
	C147.893433,377.399231 146.353973,390.382202 145.086166,403.376312 
	C144.491074,409.475677 146.676254,411.920319 151.143173,412.021637 
	C156.207047,412.136475 161.711288,407.708160 162.017120,403.344177 
	C162.660492,394.163696 163.435776,384.991669 163.996170,375.806366 
	C164.932556,360.458221 168.255386,345.585236 173.097687,331.066223 
	C178.540543,314.746552 185.604889,299.035736 195.226410,284.811462 
	C204.234100,271.494690 214.218506,258.791687 224.407272,246.337433 
	C231.022720,238.251022 238.454498,230.751160 246.103165,223.612762 
	C254.838943,215.459763 264.077820,207.822281 273.372559,200.299927 
	C279.656128,195.214584 286.413940,190.715240 293.306427,186.330582 
	C293.424622,186.453705 293.542847,186.576843 293.217743,187.200104 
	C288.945282,191.159912 284.515991,194.965057 280.430237,199.108917 
	C268.777893,210.926971 257.117462,222.743896 245.755005,234.838226 
	C239.255432,241.756485 232.930725,248.914871 227.243134,256.501770 
	C219.372040,267.001312 211.911194,277.834473 204.751175,288.834930 
	C194.013474,305.332031 185.178940,322.825989 178.980682,341.571045 
	C177.539276,345.930176 178.561981,347.501678 183.048950,348.015869 
	C186.304550,348.388977 189.573181,348.659576 192.820374,349.093079 
	C207.985947,351.117584 223.170334,350.765991 238.004272,347.357880 
	C249.453781,344.727325 260.803925,341.173462 271.719543,336.827728 
	C287.230316,330.652649 301.316071,321.849213 313.411163,310.134247 
	C327.359222,296.624573 340.171631,282.167389 348.223602,264.280426 
	C354.234985,250.926559 360.020447,237.407425 364.774384,223.572876 
	C368.067535,213.989349 369.896942,203.819092 371.531616,193.772888 
	C373.183289,183.622391 373.788757,173.301697 375.008118,162.115829 
z"/>
<path fill="#A7D07F" opacity="1.000000" stroke="none" 
	d="
M292.959656,185.953812 
	C286.413940,190.715240 279.656128,195.214584 273.372559,200.299927 
	C264.077820,207.822281 254.838943,215.459763 246.103165,223.612762 
	C238.454498,230.751160 231.022720,238.251022 224.407272,246.337433 
	C214.218506,258.791687 204.234100,271.494690 195.226410,284.811462 
	C185.604889,299.035736 178.540543,314.746552 173.097687,331.066223 
	C168.255386,345.585236 164.932556,360.458221 163.996170,375.806366 
	C163.435776,384.991669 162.660492,394.163696 162.017120,403.344177 
	C161.711288,407.708160 156.207047,412.136475 151.143173,412.021637 
	C146.676254,411.920319 144.491074,409.475677 145.086166,403.376312 
	C146.353973,390.382202 147.893433,377.399231 149.868011,364.495300 
	C151.041626,356.825867 152.782898,349.162384 155.174576,341.790009 
	C156.647751,337.248932 154.957275,333.807373 153.471771,330.158173 
	C147.990097,316.692535 143.871613,302.882080 143.035843,288.306976 
	C142.420197,277.570557 141.136444,266.683502 142.249893,256.084106 
	C143.683105,242.440811 147.589859,229.160980 153.114929,216.417740 
	C161.052139,198.111023 173.384079,183.057266 188.387482,170.474304 
	C197.880508,162.512741 208.788239,156.065948 219.615967,149.916061 
	C230.539017,143.712051 241.924698,138.178207 253.527802,133.363083 
	C262.275482,129.732941 271.726227,127.825859 280.791443,124.924980 
	C293.100616,120.986046 305.388092,116.967300 317.593506,112.720268 
	C325.829559,109.854424 334.091614,106.936501 342.007599,103.311584 
	C350.670563,99.344612 358.946503,94.532944 367.397614,90.101868 
	C368.339813,89.607857 369.324615,89.195114 370.948730,88.437073 
	C372.336212,102.780830 373.658173,116.446922 374.674438,130.897491 
	C374.247070,138.090195 373.997192,144.499466 374.050323,150.906235 
	C374.083954,154.957947 374.569641,159.005905 374.852600,163.055557 
	C373.788757,173.301697 373.183289,183.622391 371.531616,193.772888 
	C369.896942,203.819092 368.067535,213.989349 364.774384,223.572876 
	C360.020447,237.407425 354.234985,250.926559 348.223602,264.280426 
	C340.171631,282.167389 327.359222,296.624573 313.411163,310.134247 
	C301.316071,321.849213 287.230316,330.652649 271.719543,336.827728 
	C260.803925,341.173462 249.453781,344.727325 238.004272,347.357880 
	C223.170334,350.765991 207.985947,351.117584 192.820374,349.093079 
	C189.573181,348.659576 186.304550,348.388977 183.048950,348.015869 
	C178.561981,347.501678 177.539276,345.930176 178.980682,341.571045 
	C185.178940,322.825989 194.013474,305.332031 204.751175,288.834930 
	C211.911194,277.834473 219.372040,267.001312 227.243134,256.501770 
	C232.930725,248.914871 239.255432,241.756485 245.755005,234.838226 
	C257.117462,222.743896 268.777893,210.926971 280.430237,199.108917 
	C284.515991,194.965057 288.945282,191.159912 293.658875,186.760025 
	C294.276428,185.984436 294.452850,185.648926 294.629272,185.313416 
	C294.072754,185.526901 293.516205,185.740356 292.959656,185.953812 
z"/>
<path fill="#CBE4B5" opacity="1.000000" stroke="none" 
	d="
M374.930359,162.585693 
	C374.569641,159.005905 374.083954,154.957947 374.050323,150.906235 
	C373.997192,144.499466 374.247070,138.090195 374.612122,131.344635 
	C374.906403,141.376801 374.957275,151.746323 374.930359,162.585693 
z"/>
<path fill="#000000" opacity="1.000000" stroke="none" 
	d="
M293.133057,186.142212 
	C293.516205,185.740356 294.072754,185.526901 294.629272,185.313416 
	C294.452850,185.648926 294.276428,185.984436 293.880493,186.509949 
	C293.542847,186.576843 293.424622,186.453705 293.133057,186.142212 
z"/>
</svg>